<svg width="55" height="55" viewBox="0 0 55 55" fill="none" xmlns="http://www.w3.org/2000/svg">
<rect x="15.125" y="11.125" width="24" height="30" fill="#FCD209"/>
<path d="M27.125 0C12.1457 0 0 12.1457 0 27.125C0 42.1043 12.1457 54.25 27.125 54.25C42.1043 54.25 54.25 42.1043 54.25 27.125C54.25 12.1457 42.1043 0 27.125 0ZM35.8498 27.5428L22.6264 37.1637C22.5539 37.2158 22.4684 37.2469 22.3794 37.2536C22.2904 37.2602 22.2012 37.2423 22.1218 37.2016C22.0423 37.1609 21.9756 37.0991 21.929 37.023C21.8823 36.9469 21.8576 36.8594 21.8574 36.7701V17.5404C21.8571 17.451 21.8816 17.3632 21.9282 17.2868C21.9747 17.2104 22.0415 17.1484 22.1211 17.1077C22.2007 17.0669 22.2901 17.049 22.3793 17.0559C22.4685 17.0628 22.554 17.0943 22.6264 17.1469L35.8498 26.7617C35.9123 26.8059 35.9632 26.8644 35.9984 26.9324C36.0336 27.0003 36.0519 27.0757 36.0519 27.1522C36.0519 27.2288 36.0336 27.3042 35.9984 27.3721C35.9632 27.4401 35.9123 27.4986 35.8498 27.5428Z" fill="black"/>
</svg>
